<svg width="716" height="122" viewBox="0 0 716 122" fill="none" xmlns="http://www.w3.org/2000/svg">
<ellipse cx="56.1088" cy="45.7966" rx="48.1088" ry="44.0902" fill="#4E944F"/>
<path d="M74 39.7399C74 39.4496 73.9143 39.1641 73.7498 38.9139L69.009 31.6726C68.3807 30.7136 67.231 30.1169 66.0095 30.1169H46.9905C45.769 30.1169 44.6192 30.7136 43.991 31.6743L39.2503 38.9139C39.0858 39.1641 39 39.4496 39 39.7399C39 41.3517 39.6755 42.8096 40.75 43.9387V44.5513V47.7589V58.9857C40.75 59.8726 41.5323 60.5895 42.5 60.5895H56.5C57.4677 60.5895 58.25 59.8726 58.25 58.9857V50.9666H65.25V58.9857C65.25 59.8726 66.0323 60.5895 67 60.5895H70.5C71.4677 60.5895 72.25 59.8726 72.25 58.9857V47.7589V44.5513V43.9387C73.3245 42.8096 74 41.3517 74 39.7399ZM70.472 40.1424C70.255 41.7222 68.7815 42.9475 67 42.9475C65.0697 42.9475 63.5 41.5089 63.5 39.7399C63.5 39.6308 63.4563 39.5346 63.4318 39.4319L63.4667 39.4255L62.135 33.3246H66.0095L70.472 40.1424ZM53.0122 39.8441L54.4333 33.3246H58.565L59.9878 39.8441C59.9265 41.565 58.39 42.9475 56.5 42.9475C54.61 42.9475 53.0735 41.565 53.0122 39.8441ZM46.9905 33.3246H50.865L49.535 39.4255L49.57 39.4319C49.5437 39.5346 49.5 39.6308 49.5 39.7399C49.5 41.5089 47.9303 42.9475 46 42.9475C44.2185 42.9475 42.745 41.7222 42.528 40.1424L46.9905 33.3246ZM53 52.5704H46V47.7589H53V52.5704Z" fill="#E9EFC0"/>
<path d="M11.298 105.955V115.685H9.702V109.021L6.734 115.685H5.628L2.646 109.021V115.685H1.05V105.955H2.772L6.188 113.585L9.59 105.955H11.298ZM12.8637 111.793C12.8637 111.018 13.0224 110.332 13.3397 109.735C13.6664 109.138 14.105 108.676 14.6557 108.349C15.2157 108.013 15.8317 107.845 16.5037 107.845C17.1104 107.845 17.6377 107.966 18.0857 108.209C18.543 108.442 18.907 108.736 19.1777 109.091V107.971H20.7877V115.685H19.1777V114.537C18.907 114.901 18.5384 115.204 18.0717 115.447C17.605 115.69 17.073 115.811 16.4757 115.811C15.813 115.811 15.2064 115.643 14.6557 115.307C14.105 114.962 13.6664 114.486 13.3397 113.879C13.0224 113.263 12.8637 112.568 12.8637 111.793ZM19.1777 111.821C19.1777 111.289 19.0657 110.827 18.8417 110.435C18.627 110.043 18.3424 109.744 17.9877 109.539C17.633 109.334 17.2504 109.231 16.8397 109.231C16.429 109.231 16.0464 109.334 15.6917 109.539C15.337 109.735 15.0477 110.029 14.8237 110.421C14.609 110.804 14.5017 111.261 14.5017 111.793C14.5017 112.325 14.609 112.792 14.8237 113.193C15.0477 113.594 15.337 113.902 15.6917 114.117C16.0557 114.322 16.4384 114.425 16.8397 114.425C17.2504 114.425 17.633 114.322 17.9877 114.117C18.3424 113.912 18.627 113.613 18.8417 113.221C19.0657 112.82 19.1777 112.353 19.1777 111.821ZM24.48 109.091C24.7133 108.699 25.0213 108.396 25.404 108.181C25.796 107.957 26.258 107.845 26.79 107.845V109.497H26.384C25.7587 109.497 25.2827 109.656 24.956 109.973C24.6387 110.29 24.48 110.841 24.48 111.625V115.685H22.884V107.971H24.48V109.091ZM31.309 111.835L34.865 115.685H32.709L29.853 112.367V115.685H28.257V105.325H29.853V111.345L32.653 107.971H34.865L31.309 111.835ZM43.079 111.639C43.079 111.928 43.0603 112.19 43.023 112.423H37.129C37.1757 113.039 37.4043 113.534 37.815 113.907C38.2257 114.28 38.7297 114.467 39.327 114.467C40.1857 114.467 40.7923 114.108 41.147 113.389H42.869C42.6357 114.098 42.211 114.682 41.595 115.139C40.9883 115.587 40.2323 115.811 39.327 115.811C38.5897 115.811 37.927 115.648 37.339 115.321C36.7603 114.985 36.303 114.518 35.967 113.921C35.6403 113.314 35.477 112.614 35.477 111.821C35.477 111.028 35.6357 110.332 35.953 109.735C36.2797 109.128 36.7323 108.662 37.311 108.335C37.899 108.008 38.571 107.845 39.327 107.845C40.055 107.845 40.7037 108.004 41.273 108.321C41.8423 108.638 42.2857 109.086 42.603 109.665C42.9203 110.234 43.079 110.892 43.079 111.639ZM41.413 111.135C41.4037 110.547 41.1937 110.076 40.783 109.721C40.3723 109.366 39.8637 109.189 39.257 109.189C38.7063 109.189 38.235 109.366 37.843 109.721C37.451 110.066 37.2177 110.538 37.143 111.135H41.413ZM46.5116 109.273V113.543C46.5116 113.832 46.5769 114.042 46.7076 114.173C46.8476 114.294 47.0809 114.355 47.4076 114.355H48.3876V115.685H47.1276C46.4089 115.685 45.8583 115.517 45.4756 115.181C45.0929 114.845 44.9016 114.299 44.9016 113.543V109.273H43.9916V107.971H44.9016V106.053H46.5116V107.971H48.3876V109.273H46.5116ZM50.6706 106.949C50.3813 106.949 50.1386 106.851 49.9426 106.655C49.7466 106.459 49.6486 106.216 49.6486 105.927C49.6486 105.638 49.7466 105.395 49.9426 105.199C50.1386 105.003 50.3813 104.905 50.6706 104.905C50.9506 104.905 51.1886 105.003 51.3846 105.199C51.5806 105.395 51.6786 105.638 51.6786 105.927C51.6786 106.216 51.5806 106.459 51.3846 106.655C51.1886 106.851 50.9506 106.949 50.6706 106.949ZM51.4546 107.971V115.685H49.8586V107.971H51.4546ZM57.442 107.845C58.0487 107.845 58.59 107.971 59.066 108.223C59.5513 108.475 59.9293 108.848 60.2 109.343C60.4707 109.838 60.606 110.435 60.606 111.135V115.685H59.024V111.373C59.024 110.682 58.8513 110.155 58.506 109.791C58.1607 109.418 57.6893 109.231 57.092 109.231C56.4947 109.231 56.0187 109.418 55.664 109.791C55.3187 110.155 55.146 110.682 55.146 111.373V115.685H53.55V107.971H55.146V108.853C55.4073 108.536 55.7387 108.288 56.14 108.111C56.5507 107.934 56.9847 107.845 57.442 107.845ZM65.7498 107.845C66.3471 107.845 66.8745 107.966 67.3318 108.209C67.7985 108.442 68.1625 108.736 68.4238 109.091V107.971H70.0338V115.811C70.0338 116.52 69.8845 117.15 69.5858 117.701C69.2871 118.261 68.8531 118.7 68.2838 119.017C67.7238 119.334 67.0518 119.493 66.2678 119.493C65.2225 119.493 64.3545 119.246 63.6638 118.751C62.9731 118.266 62.5811 117.603 62.4878 116.763H64.0698C64.1911 117.164 64.4478 117.486 64.8398 117.729C65.2411 117.981 65.7171 118.107 66.2678 118.107C66.9118 118.107 67.4298 117.911 67.8218 117.519C68.2231 117.127 68.4238 116.558 68.4238 115.811V114.523C68.1531 114.887 67.7845 115.195 67.3178 115.447C66.8605 115.69 66.3378 115.811 65.7498 115.811C65.0778 115.811 64.4618 115.643 63.9018 115.307C63.3511 114.962 62.9125 114.486 62.5858 113.879C62.2685 113.263 62.1098 112.568 62.1098 111.793C62.1098 111.018 62.2685 110.332 62.5858 109.735C62.9125 109.138 63.3511 108.676 63.9018 108.349C64.4618 108.013 65.0778 107.845 65.7498 107.845ZM68.4238 111.821C68.4238 111.289 68.3118 110.827 68.0878 110.435C67.8731 110.043 67.5885 109.744 67.2338 109.539C66.8791 109.334 66.4965 109.231 66.0858 109.231C65.6751 109.231 65.2925 109.334 64.9378 109.539C64.5831 109.735 64.2938 110.029 64.0698 110.421C63.8551 110.804 63.7478 111.261 63.7478 111.793C63.7478 112.325 63.8551 112.792 64.0698 113.193C64.2938 113.594 64.5831 113.902 64.9378 114.117C65.3018 114.322 65.6845 114.425 66.0858 114.425C66.4965 114.425 66.8791 114.322 67.2338 114.117C67.5885 113.912 67.8731 113.613 68.0878 113.221C68.3118 112.82 68.4238 112.353 68.4238 111.821ZM78.9728 115.783C78.3195 115.783 77.7315 115.671 77.2088 115.447C76.6861 115.214 76.2755 114.887 75.9768 114.467C75.6781 114.047 75.5288 113.557 75.5288 112.997H77.2368C77.2741 113.417 77.4375 113.762 77.7268 114.033C78.0255 114.304 78.4408 114.439 78.9728 114.439C79.5235 114.439 79.9528 114.308 80.2608 114.047C80.5688 113.776 80.7228 113.431 80.7228 113.011C80.7228 112.684 80.6248 112.418 80.4288 112.213C80.2421 112.008 80.0041 111.849 79.7148 111.737C79.4348 111.625 79.0428 111.504 78.5388 111.373C77.9041 111.205 77.3861 111.037 76.9848 110.869C76.5928 110.692 76.2568 110.421 75.9768 110.057C75.6968 109.693 75.5568 109.208 75.5568 108.601C75.5568 108.041 75.6968 107.551 75.9768 107.131C76.2568 106.711 76.6488 106.389 77.1528 106.165C77.6568 105.941 78.2401 105.829 78.9028 105.829C79.8455 105.829 80.6155 106.067 81.2128 106.543C81.8195 107.01 82.1555 107.654 82.2208 108.475H80.4568C80.4288 108.12 80.2608 107.817 79.9528 107.565C79.6448 107.313 79.2388 107.187 78.7348 107.187C78.2775 107.187 77.9041 107.304 77.6148 107.537C77.3255 107.77 77.1808 108.106 77.1808 108.545C77.1808 108.844 77.2695 109.091 77.4468 109.287C77.6335 109.474 77.8668 109.623 78.1468 109.735C78.4268 109.847 78.8095 109.968 79.2948 110.099C79.9388 110.276 80.4615 110.454 80.8628 110.631C81.2735 110.808 81.6188 111.084 81.8988 111.457C82.1881 111.821 82.3328 112.311 82.3328 112.927C82.3328 113.422 82.1975 113.888 81.9268 114.327C81.6655 114.766 81.2781 115.12 80.7648 115.391C80.2608 115.652 79.6635 115.783 78.9728 115.783ZM83.684 111.793C83.684 111.018 83.8427 110.332 84.16 109.735C84.4867 109.138 84.9253 108.676 85.476 108.349C86.036 108.013 86.652 107.845 87.324 107.845C87.9307 107.845 88.458 107.966 88.906 108.209C89.3633 108.442 89.7273 108.736 89.998 109.091V107.971H91.608V115.685H89.998V114.537C89.7273 114.901 89.3587 115.204 88.892 115.447C88.4253 115.69 87.8933 115.811 87.296 115.811C86.6333 115.811 86.0267 115.643 85.476 115.307C84.9253 114.962 84.4867 114.486 84.16 113.879C83.8427 113.263 83.684 112.568 83.684 111.793ZM89.998 111.821C89.998 111.289 89.886 110.827 89.662 110.435C89.4473 110.043 89.1627 109.744 88.808 109.539C88.4533 109.334 88.0707 109.231 87.66 109.231C87.2493 109.231 86.8667 109.334 86.512 109.539C86.1573 109.735 85.868 110.029 85.644 110.421C85.4293 110.804 85.322 111.261 85.322 111.793C85.322 112.325 85.4293 112.792 85.644 113.193C85.868 113.594 86.1573 113.902 86.512 114.117C86.876 114.322 87.2587 114.425 87.66 114.425C88.0707 114.425 88.4533 114.322 88.808 114.117C89.1627 113.912 89.4473 113.613 89.662 113.221C89.886 112.82 89.998 112.353 89.998 111.821ZM95.3003 105.325V115.685H93.7043V105.325H95.3003ZM104.466 111.639C104.466 111.928 104.447 112.19 104.41 112.423H98.5157C98.5624 113.039 98.791 113.534 99.2017 113.907C99.6124 114.28 100.116 114.467 100.714 114.467C101.572 114.467 102.179 114.108 102.534 113.389H104.256C104.022 114.098 103.598 114.682 102.982 115.139C102.375 115.587 101.619 115.811 100.714 115.811C99.9764 115.811 99.3137 115.648 98.7257 115.321C98.147 114.985 97.6897 114.518 97.3537 113.921C97.027 113.314 96.8637 112.614 96.8637 111.821C96.8637 111.028 97.0224 110.332 97.3397 109.735C97.6664 109.128 98.119 108.662 98.6977 108.335C99.2857 108.008 99.9577 107.845 100.714 107.845C101.442 107.845 102.09 108.004 102.66 108.321C103.229 108.638 103.672 109.086 103.99 109.665C104.307 110.234 104.466 110.892 104.466 111.639ZM102.8 111.135C102.79 110.547 102.58 110.076 102.17 109.721C101.759 109.366 101.25 109.189 100.644 109.189C100.093 109.189 99.6217 109.366 99.2297 109.721C98.8377 110.066 98.6044 110.538 98.5297 111.135H102.8ZM108.836 115.811C108.23 115.811 107.684 115.704 107.198 115.489C106.722 115.265 106.344 114.966 106.064 114.593C105.784 114.21 105.635 113.786 105.616 113.319H107.268C107.296 113.646 107.45 113.921 107.73 114.145C108.02 114.36 108.379 114.467 108.808 114.467C109.256 114.467 109.602 114.383 109.844 114.215C110.096 114.038 110.222 113.814 110.222 113.543C110.222 113.254 110.082 113.039 109.802 112.899C109.532 112.759 109.098 112.605 108.5 112.437C107.922 112.278 107.45 112.124 107.086 111.975C106.722 111.826 106.405 111.597 106.134 111.289C105.873 110.981 105.742 110.575 105.742 110.071C105.742 109.66 105.864 109.287 106.106 108.951C106.349 108.606 106.694 108.335 107.142 108.139C107.6 107.943 108.122 107.845 108.71 107.845C109.588 107.845 110.292 108.069 110.824 108.517C111.366 108.956 111.655 109.558 111.692 110.323H110.096C110.068 109.978 109.928 109.702 109.676 109.497C109.424 109.292 109.084 109.189 108.654 109.189C108.234 109.189 107.912 109.268 107.688 109.427C107.464 109.586 107.352 109.796 107.352 110.057C107.352 110.262 107.427 110.435 107.576 110.575C107.726 110.715 107.908 110.827 108.122 110.911C108.337 110.986 108.654 111.084 109.074 111.205C109.634 111.354 110.092 111.508 110.446 111.667C110.81 111.816 111.123 112.04 111.384 112.339C111.646 112.638 111.781 113.034 111.79 113.529C111.79 113.968 111.669 114.36 111.426 114.705C111.184 115.05 110.838 115.321 110.39 115.517C109.952 115.713 109.434 115.811 108.836 115.811Z" fill="#4E944F"/>
<ellipse cx="251.109" cy="44.8801" rx="48.1088" ry="44.0902" fill="#4E944F"/>
<path d="M247.353 60.706C248.865 61.0829 250.407 61.2737 251.938 61.2737C252.02 61.2737 252.102 61.2737 252.185 61.2721C253.989 61.248 255.635 60.3932 256.586 58.9867C257.534 57.5818 257.636 55.8546 256.853 54.3679L256.507 53.7023C255.714 52.1916 256.337 50.822 257.186 50.0442C258.035 49.2663 259.533 48.6954 261.176 49.4219H261.178L261.9 49.741C263.526 50.4563 265.409 50.3649 266.942 49.4957C268.478 48.6248 269.409 47.1173 269.437 45.4622C269.462 43.9851 269.253 42.4952 268.82 41.0358C267.003 34.8982 261.202 30.204 254.39 29.3524C248.879 28.6676 243.468 30.3179 239.566 33.8959C235.663 37.4739 233.854 42.4247 234.606 47.4813C235.534 53.7264 240.658 59.0413 247.353 60.706ZM258.063 35.6135C259.512 35.6135 260.688 36.6896 260.688 38.0191C260.688 39.3487 259.512 40.4248 258.063 40.4248C256.614 40.4248 255.438 39.3487 255.438 38.0191C255.438 36.6896 256.614 35.6135 258.063 35.6135ZM249.313 34.0097C250.762 34.0097 251.938 35.0859 251.938 36.4154C251.938 37.7449 250.762 38.821 249.313 38.821C247.864 38.821 246.688 37.7449 246.688 36.4154C246.688 35.0859 247.864 34.0097 249.313 34.0097ZM246.688 50.8589C246.688 52.1884 245.512 53.2645 244.063 53.2645C242.614 53.2645 241.438 52.1868 241.438 50.8589C241.438 49.531 242.614 48.4532 244.063 48.4532C245.512 48.4532 246.688 49.531 246.688 50.8589ZM242.313 40.4344C243.762 40.4344 244.938 41.5121 244.938 42.8401C244.938 44.1696 243.762 45.2457 242.313 45.2457C240.864 45.2457 239.688 44.168 239.688 42.8401C239.688 41.5121 240.864 40.4344 242.313 40.4344Z" fill="#E9EFC0"/>
<path d="M231.667 105.038C232.703 105.038 233.609 105.239 234.383 105.64C235.167 106.032 235.769 106.602 236.189 107.348C236.619 108.086 236.833 108.949 236.833 109.938C236.833 110.928 236.619 111.786 236.189 112.514C235.769 113.242 235.167 113.802 234.383 114.194C233.609 114.577 232.703 114.768 231.667 114.768H228.489V105.038H231.667ZM231.667 113.466C232.806 113.466 233.679 113.158 234.285 112.542C234.892 111.926 235.195 111.058 235.195 109.938C235.195 108.809 234.892 107.927 234.285 107.292C233.679 106.658 232.806 106.34 231.667 106.34H230.085V113.466H231.667ZM245.485 110.722C245.485 111.012 245.466 111.273 245.429 111.506H239.535C239.582 112.122 239.81 112.617 240.221 112.99C240.632 113.364 241.136 113.55 241.733 113.55C242.592 113.55 243.198 113.191 243.553 112.472H245.275C245.042 113.182 244.617 113.765 244.001 114.222C243.394 114.67 242.638 114.894 241.733 114.894C240.996 114.894 240.333 114.731 239.745 114.404C239.166 114.068 238.709 113.602 238.373 113.004C238.046 112.398 237.883 111.698 237.883 110.904C237.883 110.111 238.042 109.416 238.359 108.818C238.686 108.212 239.138 107.745 239.717 107.418C240.305 107.092 240.977 106.928 241.733 106.928C242.461 106.928 243.11 107.087 243.679 107.404C244.248 107.722 244.692 108.17 245.009 108.748C245.326 109.318 245.485 109.976 245.485 110.722ZM243.819 110.218C243.81 109.63 243.6 109.159 243.189 108.804C242.778 108.45 242.27 108.272 241.663 108.272C241.112 108.272 240.641 108.45 240.249 108.804C239.857 109.15 239.624 109.621 239.549 110.218H243.819ZM249.856 114.894C249.249 114.894 248.703 114.787 248.218 114.572C247.742 114.348 247.364 114.05 247.084 113.676C246.804 113.294 246.654 112.869 246.636 112.402H248.288C248.316 112.729 248.47 113.004 248.75 113.228C249.039 113.443 249.398 113.55 249.828 113.55C250.276 113.55 250.621 113.466 250.864 113.298C251.116 113.121 251.242 112.897 251.242 112.626C251.242 112.337 251.102 112.122 250.822 111.982C250.551 111.842 250.117 111.688 249.52 111.52C248.941 111.362 248.47 111.208 248.106 111.058C247.742 110.909 247.424 110.68 247.154 110.372C246.892 110.064 246.762 109.658 246.762 109.154C246.762 108.744 246.883 108.37 247.126 108.034C247.368 107.689 247.714 107.418 248.162 107.222C248.619 107.026 249.142 106.928 249.73 106.928C250.607 106.928 251.312 107.152 251.844 107.6C252.385 108.039 252.674 108.641 252.712 109.406H251.116C251.088 109.061 250.948 108.786 250.696 108.58C250.444 108.375 250.103 108.272 249.674 108.272C249.254 108.272 248.932 108.352 248.708 108.51C248.484 108.669 248.372 108.879 248.372 109.14C248.372 109.346 248.446 109.518 248.596 109.658C248.745 109.798 248.927 109.91 249.142 109.994C249.356 110.069 249.674 110.167 250.094 110.288C250.654 110.438 251.111 110.592 251.466 110.75C251.83 110.9 252.142 111.124 252.404 111.422C252.665 111.721 252.8 112.118 252.81 112.612C252.81 113.051 252.688 113.443 252.446 113.788C252.203 114.134 251.858 114.404 251.41 114.6C250.971 114.796 250.453 114.894 249.856 114.894ZM255.346 106.032C255.057 106.032 254.814 105.934 254.618 105.738C254.422 105.542 254.324 105.3 254.324 105.01C254.324 104.721 254.422 104.478 254.618 104.282C254.814 104.086 255.057 103.988 255.346 103.988C255.626 103.988 255.864 104.086 256.06 104.282C256.256 104.478 256.354 104.721 256.354 105.01C256.354 105.3 256.256 105.542 256.06 105.738C255.864 105.934 255.626 106.032 255.346 106.032ZM256.13 107.054V114.768H254.534V107.054H256.13ZM261.334 106.928C261.931 106.928 262.458 107.05 262.916 107.292C263.382 107.526 263.746 107.82 264.008 108.174V107.054H265.618V114.894C265.618 115.604 265.468 116.234 265.17 116.784C264.871 117.344 264.437 117.783 263.868 118.1C263.308 118.418 262.636 118.576 261.852 118.576C260.806 118.576 259.938 118.329 259.248 117.834C258.557 117.349 258.165 116.686 258.072 115.846H259.654C259.775 116.248 260.032 116.57 260.424 116.812C260.825 117.064 261.301 117.19 261.852 117.19C262.496 117.19 263.014 116.994 263.406 116.602C263.807 116.21 264.008 115.641 264.008 114.894V113.606C263.737 113.97 263.368 114.278 262.902 114.53C262.444 114.773 261.922 114.894 261.334 114.894C260.662 114.894 260.046 114.726 259.486 114.39C258.935 114.045 258.496 113.569 258.17 112.962C257.852 112.346 257.694 111.651 257.694 110.876C257.694 110.102 257.852 109.416 258.17 108.818C258.496 108.221 258.935 107.759 259.486 107.432C260.046 107.096 260.662 106.928 261.334 106.928ZM264.008 110.904C264.008 110.372 263.896 109.91 263.672 109.518C263.457 109.126 263.172 108.828 262.818 108.622C262.463 108.417 262.08 108.314 261.67 108.314C261.259 108.314 260.876 108.417 260.522 108.622C260.167 108.818 259.878 109.112 259.654 109.504C259.439 109.887 259.332 110.344 259.332 110.876C259.332 111.408 259.439 111.875 259.654 112.276C259.878 112.678 260.167 112.986 260.522 113.2C260.886 113.406 261.268 113.508 261.67 113.508C262.08 113.508 262.463 113.406 262.818 113.2C263.172 112.995 263.457 112.696 263.672 112.304C263.896 111.903 264.008 111.436 264.008 110.904ZM271.606 106.928C272.212 106.928 272.754 107.054 273.23 107.306C273.715 107.558 274.093 107.932 274.364 108.426C274.634 108.921 274.77 109.518 274.77 110.218V114.768H273.188V110.456C273.188 109.766 273.015 109.238 272.67 108.874C272.324 108.501 271.853 108.314 271.256 108.314C270.658 108.314 270.182 108.501 269.828 108.874C269.482 109.238 269.31 109.766 269.31 110.456V114.768H267.714V107.054H269.31V107.936C269.571 107.619 269.902 107.372 270.304 107.194C270.714 107.017 271.148 106.928 271.606 106.928Z" fill="#4E944F"/>
<ellipse cx="437.109" cy="45.7966" rx="48.1088" ry="44.0902" fill="#4E944F"/>
<path d="M429.285 53.4847L431.472 50.9795L424.43 45.8168L431.472 40.6541L429.285 38.149L420.535 44.5642C420.12 44.869 419.878 45.3293 419.878 45.8168C419.878 46.3044 420.12 46.7647 420.535 47.0694L429.285 53.4847ZM445.472 38.149L443.285 40.6541L450.327 45.8168L443.285 50.9795L445.472 53.4847L454.222 47.0694C454.637 46.7647 454.878 46.3044 454.878 45.8168C454.878 45.3293 454.637 44.869 454.222 44.5642L445.472 38.149Z" fill="#E9EFC0"/>
<path d="M442.586 31.7295L435.587 60.5983L432.169 59.9022L439.168 31.0334L442.586 31.7295Z" fill="#E9EFC0"/>
<path d="M412.598 105.955L409.714 115.685H407.908L405.864 108.321L403.694 115.685L401.902 115.699L399.144 105.955H400.838L402.854 113.879L405.038 105.955H406.83L408.86 113.837L410.89 105.955H412.598ZM420.985 111.639C420.985 111.928 420.966 112.19 420.929 112.423H415.035C415.081 113.039 415.31 113.534 415.721 113.907C416.131 114.28 416.635 114.467 417.233 114.467C418.091 114.467 418.698 114.108 419.053 113.389H420.775C420.541 114.098 420.117 114.682 419.501 115.139C418.894 115.587 418.138 115.811 417.233 115.811C416.495 115.811 415.833 115.648 415.245 115.321C414.666 114.985 414.209 114.518 413.873 113.921C413.546 113.314 413.383 112.614 413.383 111.821C413.383 111.028 413.541 110.332 413.859 109.735C414.185 109.128 414.638 108.662 415.217 108.335C415.805 108.008 416.477 107.845 417.233 107.845C417.961 107.845 418.609 108.004 419.179 108.321C419.748 108.638 420.191 109.086 420.509 109.665C420.826 110.234 420.985 110.892 420.985 111.639ZM419.319 111.135C419.309 110.547 419.099 110.076 418.689 109.721C418.278 109.366 417.769 109.189 417.163 109.189C416.612 109.189 416.141 109.366 415.749 109.721C415.357 110.066 415.123 110.538 415.049 111.135H419.319ZM424.151 109.119C424.422 108.746 424.791 108.442 425.257 108.209C425.733 107.966 426.261 107.845 426.839 107.845C427.521 107.845 428.137 108.008 428.687 108.335C429.238 108.662 429.672 109.128 429.989 109.735C430.307 110.332 430.465 111.018 430.465 111.793C430.465 112.568 430.307 113.263 429.989 113.879C429.672 114.486 429.233 114.962 428.673 115.307C428.123 115.643 427.511 115.811 426.839 115.811C426.242 115.811 425.71 115.694 425.243 115.461C424.786 115.228 424.422 114.929 424.151 114.565V115.685H422.555V105.325H424.151V109.119ZM428.841 111.793C428.841 111.261 428.729 110.804 428.505 110.421C428.291 110.029 428.001 109.735 427.637 109.539C427.283 109.334 426.9 109.231 426.489 109.231C426.088 109.231 425.705 109.334 425.341 109.539C424.987 109.744 424.697 110.043 424.473 110.435C424.259 110.827 424.151 111.289 424.151 111.821C424.151 112.353 424.259 112.82 424.473 113.221C424.697 113.613 424.987 113.912 425.341 114.117C425.705 114.322 426.088 114.425 426.489 114.425C426.9 114.425 427.283 114.322 427.637 114.117C428.001 113.902 428.291 113.594 428.505 113.193C428.729 112.792 428.841 112.325 428.841 111.793ZM435.148 110.799C435.148 109.847 435.368 108.993 435.806 108.237C436.254 107.481 436.856 106.893 437.612 106.473C438.378 106.044 439.213 105.829 440.118 105.829C441.154 105.829 442.074 106.086 442.876 106.599C443.688 107.103 444.276 107.822 444.64 108.755H442.722C442.47 108.242 442.12 107.859 441.672 107.607C441.224 107.355 440.706 107.229 440.118 107.229C439.474 107.229 438.9 107.374 438.396 107.663C437.892 107.952 437.496 108.368 437.206 108.909C436.926 109.45 436.786 110.08 436.786 110.799C436.786 111.518 436.926 112.148 437.206 112.689C437.496 113.23 437.892 113.65 438.396 113.949C438.9 114.238 439.474 114.383 440.118 114.383C440.706 114.383 441.224 114.257 441.672 114.005C442.12 113.753 442.47 113.37 442.722 112.857H444.64C444.276 113.79 443.688 114.509 442.876 115.013C442.074 115.517 441.154 115.769 440.118 115.769C439.204 115.769 438.368 115.559 437.612 115.139C436.856 114.71 436.254 114.117 435.806 113.361C435.368 112.605 435.148 111.751 435.148 110.799ZM448.104 109.091C448.338 108.699 448.646 108.396 449.028 108.181C449.42 107.957 449.882 107.845 450.414 107.845V109.497H450.008C449.383 109.497 448.907 109.656 448.58 109.973C448.263 110.29 448.104 110.841 448.104 111.625V115.685H446.508V107.971H448.104V109.091ZM458.951 111.639C458.951 111.928 458.933 112.19 458.895 112.423H453.001C453.048 113.039 453.277 113.534 453.687 113.907C454.098 114.28 454.602 114.467 455.199 114.467C456.058 114.467 456.665 114.108 457.019 113.389H458.741C458.508 114.098 458.083 114.682 457.467 115.139C456.861 115.587 456.105 115.811 455.199 115.811C454.462 115.811 453.799 115.648 453.211 115.321C452.633 114.985 452.175 114.518 451.839 113.921C451.513 113.314 451.349 112.614 451.349 111.821C451.349 111.028 451.508 110.332 451.825 109.735C452.152 109.128 452.605 108.662 453.183 108.335C453.771 108.008 454.443 107.845 455.199 107.845C455.927 107.845 456.576 108.004 457.145 108.321C457.715 108.638 458.158 109.086 458.475 109.665C458.793 110.234 458.951 110.892 458.951 111.639ZM457.285 111.135C457.276 110.547 457.066 110.076 456.655 109.721C456.245 109.366 455.736 109.189 455.129 109.189C454.579 109.189 454.107 109.366 453.715 109.721C453.323 110.066 453.09 110.538 453.015 111.135H457.285ZM459.99 111.793C459.99 111.018 460.149 110.332 460.466 109.735C460.793 109.138 461.231 108.676 461.782 108.349C462.342 108.013 462.958 107.845 463.63 107.845C464.237 107.845 464.764 107.966 465.212 108.209C465.669 108.442 466.033 108.736 466.304 109.091V107.971H467.914V115.685H466.304V114.537C466.033 114.901 465.665 115.204 465.198 115.447C464.731 115.69 464.199 115.811 463.602 115.811C462.939 115.811 462.333 115.643 461.782 115.307C461.231 114.962 460.793 114.486 460.466 113.879C460.149 113.263 459.99 112.568 459.99 111.793ZM466.304 111.821C466.304 111.289 466.192 110.827 465.968 110.435C465.753 110.043 465.469 109.744 465.114 109.539C464.759 109.334 464.377 109.231 463.966 109.231C463.555 109.231 463.173 109.334 462.818 109.539C462.463 109.735 462.174 110.029 461.95 110.421C461.735 110.804 461.628 111.261 461.628 111.793C461.628 112.325 461.735 112.792 461.95 113.193C462.174 113.594 462.463 113.902 462.818 114.117C463.182 114.322 463.565 114.425 463.966 114.425C464.377 114.425 464.759 114.322 465.114 114.117C465.469 113.912 465.753 113.613 465.968 113.221C466.192 112.82 466.304 112.353 466.304 111.821ZM471.872 109.273V113.543C471.872 113.832 471.938 114.042 472.068 114.173C472.208 114.294 472.442 114.355 472.768 114.355H473.748V115.685H472.488C471.77 115.685 471.219 115.517 470.836 115.181C470.454 114.845 470.262 114.299 470.262 113.543V109.273H469.352V107.971H470.262V106.053H471.872V107.971H473.748V109.273H471.872ZM478.565 115.811C477.837 115.811 477.179 115.648 476.591 115.321C476.003 114.985 475.541 114.518 475.205 113.921C474.869 113.314 474.701 112.614 474.701 111.821C474.701 111.037 474.874 110.342 475.219 109.735C475.565 109.128 476.036 108.662 476.633 108.335C477.231 108.008 477.898 107.845 478.635 107.845C479.373 107.845 480.04 108.008 480.637 108.335C481.235 108.662 481.706 109.128 482.051 109.735C482.397 110.342 482.569 111.037 482.569 111.821C482.569 112.605 482.392 113.3 482.037 113.907C481.683 114.514 481.197 114.985 480.581 115.321C479.975 115.648 479.303 115.811 478.565 115.811ZM478.565 114.425C478.976 114.425 479.359 114.327 479.713 114.131C480.077 113.935 480.371 113.641 480.595 113.249C480.819 112.857 480.931 112.381 480.931 111.821C480.931 111.261 480.824 110.79 480.609 110.407C480.395 110.015 480.11 109.721 479.755 109.525C479.401 109.329 479.018 109.231 478.607 109.231C478.197 109.231 477.814 109.329 477.459 109.525C477.114 109.721 476.839 110.015 476.633 110.407C476.428 110.79 476.325 111.261 476.325 111.821C476.325 112.652 476.535 113.296 476.955 113.753C477.385 114.201 477.921 114.425 478.565 114.425ZM485.743 109.091C485.976 108.699 486.284 108.396 486.667 108.181C487.059 107.957 487.521 107.845 488.053 107.845V109.497H487.647C487.022 109.497 486.546 109.656 486.219 109.973C485.902 110.29 485.743 110.841 485.743 111.625V115.685H484.147V107.971H485.743V109.091Z" fill="#4E944F"/>
<ellipse cx="641.791" cy="47.6295" rx="48.1088" ry="44.0902" fill="#4E944F"/>
<path d="M637.816 47.7768C641.879 47.7768 645.184 44.7481 645.184 41.0239C645.184 37.2996 641.879 34.2709 637.816 34.2709C633.752 34.2709 630.447 37.2996 630.447 41.0239C630.447 44.7481 633.752 47.7768 637.816 47.7768ZM640.579 49.465H635.053C628.957 49.465 624 54.008 624 59.5944V61.2826H625.842H627.684H647.947H649.789H651.632V59.5944C651.632 54.008 646.674 49.465 640.579 49.465Z" fill="#E9EFC0"/>
<path d="M650.902 46.1696C652.015 44.4324 652.508 42.4082 652.286 40.3621C651.956 37.3503 650.121 34.6879 647.122 32.8663L645.087 35.6789C647.148 36.9316 648.402 38.7161 648.62 40.6997C648.822 42.5652 648.104 44.4037 646.645 45.7408L644.449 47.7531L647.43 48.5551C655.226 50.6485 655.316 57.8336 655.316 57.9062H659C659 54.8859 657.239 48.9839 650.902 46.1696Z" fill="#E9EFC0"/>
<path d="M583.256 117.616C582.603 117.616 582.015 117.504 581.492 117.28C580.969 117.047 580.559 116.72 580.26 116.3C579.961 115.88 579.812 115.39 579.812 114.83H581.52C581.557 115.25 581.721 115.595 582.01 115.866C582.309 116.137 582.724 116.272 583.256 116.272C583.807 116.272 584.236 116.141 584.544 115.88C584.852 115.609 585.006 115.264 585.006 114.844C585.006 114.517 584.908 114.251 584.712 114.046C584.525 113.841 584.287 113.682 583.998 113.57C583.718 113.458 583.326 113.337 582.822 113.206C582.187 113.038 581.669 112.87 581.268 112.702C580.876 112.525 580.54 112.254 580.26 111.89C579.98 111.526 579.84 111.041 579.84 110.434C579.84 109.874 579.98 109.384 580.26 108.964C580.54 108.544 580.932 108.222 581.436 107.998C581.94 107.774 582.523 107.662 583.186 107.662C584.129 107.662 584.899 107.9 585.496 108.376C586.103 108.843 586.439 109.487 586.504 110.308H584.74C584.712 109.953 584.544 109.65 584.236 109.398C583.928 109.146 583.522 109.02 583.018 109.02C582.561 109.02 582.187 109.137 581.898 109.37C581.609 109.603 581.464 109.939 581.464 110.378C581.464 110.677 581.553 110.924 581.73 111.12C581.917 111.307 582.15 111.456 582.43 111.568C582.71 111.68 583.093 111.801 583.578 111.932C584.222 112.109 584.745 112.287 585.146 112.464C585.557 112.641 585.902 112.917 586.182 113.29C586.471 113.654 586.616 114.144 586.616 114.76C586.616 115.255 586.481 115.721 586.21 116.16C585.949 116.599 585.561 116.953 585.048 117.224C584.544 117.485 583.947 117.616 583.256 117.616ZM590.361 111.106V115.376C590.361 115.665 590.427 115.875 590.557 116.006C590.697 116.127 590.931 116.188 591.257 116.188H592.237V117.518H590.977C590.259 117.518 589.708 117.35 589.325 117.014C588.943 116.678 588.751 116.132 588.751 115.376V111.106H587.841V109.804H588.751V107.886H590.361V109.804H592.237V111.106H590.361ZM597.054 117.644C596.326 117.644 595.668 117.481 595.08 117.154C594.492 116.818 594.03 116.351 593.694 115.754C593.358 115.147 593.19 114.447 593.19 113.654C593.19 112.87 593.363 112.175 593.708 111.568C594.054 110.961 594.525 110.495 595.122 110.168C595.72 109.841 596.387 109.678 597.124 109.678C597.862 109.678 598.529 109.841 599.126 110.168C599.724 110.495 600.195 110.961 600.54 111.568C600.886 112.175 601.058 112.87 601.058 113.654C601.058 114.438 600.881 115.133 600.526 115.74C600.172 116.347 599.686 116.818 599.07 117.154C598.464 117.481 597.792 117.644 597.054 117.644ZM597.054 116.258C597.465 116.258 597.848 116.16 598.202 115.964C598.566 115.768 598.86 115.474 599.084 115.082C599.308 114.69 599.42 114.214 599.42 113.654C599.42 113.094 599.313 112.623 599.098 112.24C598.884 111.848 598.599 111.554 598.244 111.358C597.89 111.162 597.507 111.064 597.096 111.064C596.686 111.064 596.303 111.162 595.948 111.358C595.603 111.554 595.328 111.848 595.122 112.24C594.917 112.623 594.814 113.094 594.814 113.654C594.814 114.485 595.024 115.129 595.444 115.586C595.874 116.034 596.41 116.258 597.054 116.258ZM604.232 110.924C604.465 110.532 604.773 110.229 605.156 110.014C605.548 109.79 606.01 109.678 606.542 109.678V111.33H606.136C605.511 111.33 605.035 111.489 604.708 111.806C604.391 112.123 604.232 112.674 604.232 113.458V117.518H602.636V109.804H604.232V110.924ZM615.079 113.472C615.079 113.761 615.06 114.023 615.023 114.256H609.129C609.176 114.872 609.404 115.367 609.815 115.74C610.226 116.113 610.73 116.3 611.327 116.3C612.186 116.3 612.792 115.941 613.147 115.222H614.869C614.636 115.931 614.211 116.515 613.595 116.972C612.988 117.42 612.232 117.644 611.327 117.644C610.59 117.644 609.927 117.481 609.339 117.154C608.76 116.818 608.303 116.351 607.967 115.754C607.64 115.147 607.477 114.447 607.477 113.654C607.477 112.861 607.636 112.165 607.953 111.568C608.28 110.961 608.732 110.495 609.311 110.168C609.899 109.841 610.571 109.678 611.327 109.678C612.055 109.678 612.704 109.837 613.273 110.154C613.842 110.471 614.286 110.919 614.603 111.498C614.92 112.067 615.079 112.725 615.079 113.472ZM613.413 112.968C613.404 112.38 613.194 111.909 612.783 111.554C612.372 111.199 611.864 111.022 611.257 111.022C610.706 111.022 610.235 111.199 609.843 111.554C609.451 111.899 609.218 112.371 609.143 112.968H613.413ZM630.534 107.788V117.518H628.938V110.854L625.97 117.518H624.864L621.882 110.854V117.518H620.286V107.788H622.008L625.424 115.418L628.826 107.788H630.534ZM632.1 113.626C632.1 112.851 632.259 112.165 632.576 111.568C632.903 110.971 633.341 110.509 633.892 110.182C634.452 109.846 635.068 109.678 635.74 109.678C636.347 109.678 636.874 109.799 637.322 110.042C637.779 110.275 638.143 110.569 638.414 110.924V109.804H640.024V117.518H638.414V116.37C638.143 116.734 637.775 117.037 637.308 117.28C636.841 117.523 636.309 117.644 635.712 117.644C635.049 117.644 634.443 117.476 633.892 117.14C633.341 116.795 632.903 116.319 632.576 115.712C632.259 115.096 632.1 114.401 632.1 113.626ZM638.414 113.654C638.414 113.122 638.302 112.66 638.078 112.268C637.863 111.876 637.579 111.577 637.224 111.372C636.869 111.167 636.487 111.064 636.076 111.064C635.665 111.064 635.283 111.167 634.928 111.372C634.573 111.568 634.284 111.862 634.06 112.254C633.845 112.637 633.738 113.094 633.738 113.626C633.738 114.158 633.845 114.625 634.06 115.026C634.284 115.427 634.573 115.735 634.928 115.95C635.292 116.155 635.675 116.258 636.076 116.258C636.487 116.258 636.869 116.155 637.224 115.95C637.579 115.745 637.863 115.446 638.078 115.054C638.302 114.653 638.414 114.186 638.414 113.654ZM646.012 109.678C646.619 109.678 647.16 109.804 647.636 110.056C648.122 110.308 648.5 110.681 648.77 111.176C649.041 111.671 649.176 112.268 649.176 112.968V117.518H647.594V113.206C647.594 112.515 647.422 111.988 647.076 111.624C646.731 111.251 646.26 111.064 645.662 111.064C645.065 111.064 644.589 111.251 644.234 111.624C643.889 111.988 643.716 112.515 643.716 113.206V117.518H642.12V109.804H643.716V110.686C643.978 110.369 644.309 110.121 644.71 109.944C645.121 109.767 645.555 109.678 646.012 109.678ZM650.68 113.626C650.68 112.851 650.839 112.165 651.156 111.568C651.483 110.971 651.921 110.509 652.472 110.182C653.032 109.846 653.648 109.678 654.32 109.678C654.927 109.678 655.454 109.799 655.902 110.042C656.359 110.275 656.723 110.569 656.994 110.924V109.804H658.604V117.518H656.994V116.37C656.723 116.734 656.355 117.037 655.888 117.28C655.421 117.523 654.889 117.644 654.292 117.644C653.629 117.644 653.023 117.476 652.472 117.14C651.921 116.795 651.483 116.319 651.156 115.712C650.839 115.096 650.68 114.401 650.68 113.626ZM656.994 113.654C656.994 113.122 656.882 112.66 656.658 112.268C656.443 111.876 656.159 111.577 655.804 111.372C655.449 111.167 655.067 111.064 654.656 111.064C654.245 111.064 653.863 111.167 653.508 111.372C653.153 111.568 652.864 111.862 652.64 112.254C652.425 112.637 652.318 113.094 652.318 113.626C652.318 114.158 652.425 114.625 652.64 115.026C652.864 115.427 653.153 115.735 653.508 115.95C653.872 116.155 654.255 116.258 654.656 116.258C655.067 116.258 655.449 116.155 655.804 115.95C656.159 115.745 656.443 115.446 656.658 115.054C656.882 114.653 656.994 114.186 656.994 113.654ZM663.808 109.678C664.406 109.678 664.933 109.799 665.39 110.042C665.857 110.275 666.221 110.569 666.482 110.924V109.804H668.092V117.644C668.092 118.353 667.943 118.983 667.644 119.534C667.346 120.094 666.912 120.533 666.342 120.85C665.782 121.167 665.11 121.326 664.326 121.326C663.281 121.326 662.413 121.079 661.722 120.584C661.032 120.099 660.64 119.436 660.546 118.596H662.128C662.25 118.997 662.506 119.319 662.898 119.562C663.3 119.814 663.776 119.94 664.326 119.94C664.97 119.94 665.488 119.744 665.88 119.352C666.282 118.96 666.482 118.391 666.482 117.644V116.356C666.212 116.72 665.843 117.028 665.376 117.28C664.919 117.523 664.396 117.644 663.808 117.644C663.136 117.644 662.52 117.476 661.96 117.14C661.41 116.795 660.971 116.319 660.644 115.712C660.327 115.096 660.168 114.401 660.168 113.626C660.168 112.851 660.327 112.165 660.644 111.568C660.971 110.971 661.41 110.509 661.96 110.182C662.52 109.846 663.136 109.678 663.808 109.678ZM666.482 113.654C666.482 113.122 666.37 112.66 666.146 112.268C665.932 111.876 665.647 111.577 665.292 111.372C664.938 111.167 664.555 111.064 664.144 111.064C663.734 111.064 663.351 111.167 662.996 111.372C662.642 111.568 662.352 111.862 662.128 112.254C661.914 112.637 661.806 113.094 661.806 113.626C661.806 114.158 661.914 114.625 662.128 115.026C662.352 115.427 662.642 115.735 662.996 115.95C663.36 116.155 663.743 116.258 664.144 116.258C664.555 116.258 664.938 116.155 665.292 115.95C665.647 115.745 665.932 115.446 666.146 115.054C666.37 114.653 666.482 114.186 666.482 113.654ZM677.259 113.472C677.259 113.761 677.24 114.023 677.203 114.256H671.309C671.355 114.872 671.584 115.367 671.995 115.74C672.405 116.113 672.909 116.3 673.507 116.3C674.365 116.3 674.972 115.941 675.327 115.222H677.049C676.815 115.931 676.391 116.515 675.775 116.972C675.168 117.42 674.412 117.644 673.507 117.644C672.769 117.644 672.107 117.481 671.519 117.154C670.94 116.818 670.483 116.351 670.147 115.754C669.82 115.147 669.657 114.447 669.657 113.654C669.657 112.861 669.815 112.165 670.133 111.568C670.459 110.961 670.912 110.495 671.491 110.168C672.079 109.841 672.751 109.678 673.507 109.678C674.235 109.678 674.883 109.837 675.453 110.154C676.022 110.471 676.465 110.919 676.783 111.498C677.1 112.067 677.259 112.725 677.259 113.472ZM675.593 112.968C675.583 112.38 675.373 111.909 674.963 111.554C674.552 111.199 674.043 111.022 673.437 111.022C672.886 111.022 672.415 111.199 672.023 111.554C671.631 111.899 671.397 112.371 671.323 112.968H675.593ZM688.167 109.678C688.774 109.678 689.315 109.804 689.791 110.056C690.277 110.308 690.655 110.681 690.925 111.176C691.205 111.671 691.345 112.268 691.345 112.968V117.518H689.763V113.206C689.763 112.515 689.591 111.988 689.245 111.624C688.9 111.251 688.429 111.064 687.831 111.064C687.234 111.064 686.758 111.251 686.403 111.624C686.058 111.988 685.885 112.515 685.885 113.206V117.518H684.303V113.206C684.303 112.515 684.131 111.988 683.785 111.624C683.44 111.251 682.969 111.064 682.371 111.064C681.774 111.064 681.298 111.251 680.943 111.624C680.598 111.988 680.425 112.515 680.425 113.206V117.518H678.829V109.804H680.425V110.686C680.687 110.369 681.018 110.121 681.419 109.944C681.821 109.767 682.25 109.678 682.707 109.678C683.323 109.678 683.874 109.809 684.359 110.07C684.845 110.331 685.218 110.709 685.479 111.204C685.713 110.737 686.077 110.369 686.571 110.098C687.066 109.818 687.598 109.678 688.167 109.678ZM700.446 113.472C700.446 113.761 700.428 114.023 700.39 114.256H694.496C694.543 114.872 694.772 115.367 695.182 115.74C695.593 116.113 696.097 116.3 696.694 116.3C697.553 116.3 698.16 115.941 698.514 115.222H700.236C700.003 115.931 699.578 116.515 698.962 116.972C698.356 117.42 697.6 117.644 696.694 117.644C695.957 117.644 695.294 117.481 694.706 117.154C694.128 116.818 693.67 116.351 693.334 115.754C693.008 115.147 692.844 114.447 692.844 113.654C692.844 112.861 693.003 112.165 693.32 111.568C693.647 110.961 694.1 110.495 694.678 110.168C695.266 109.841 695.938 109.678 696.694 109.678C697.422 109.678 698.071 109.837 698.64 110.154C699.21 110.471 699.653 110.919 699.97 111.498C700.288 112.067 700.446 112.725 700.446 113.472ZM698.78 112.968C698.771 112.38 698.561 111.909 698.15 111.554C697.74 111.199 697.231 111.022 696.624 111.022C696.074 111.022 695.602 111.199 695.21 111.554C694.818 111.899 694.585 112.371 694.51 112.968H698.78ZM705.909 109.678C706.515 109.678 707.057 109.804 707.533 110.056C708.018 110.308 708.396 110.681 708.667 111.176C708.937 111.671 709.073 112.268 709.073 112.968V117.518H707.491V113.206C707.491 112.515 707.318 111.988 706.973 111.624C706.627 111.251 706.156 111.064 705.559 111.064C704.961 111.064 704.485 111.251 704.131 111.624C703.785 111.988 703.613 112.515 703.613 113.206V117.518H702.017V109.804H703.613V110.686C703.874 110.369 704.205 110.121 704.607 109.944C705.017 109.767 705.451 109.678 705.909 109.678ZM712.971 111.106V115.376C712.971 115.665 713.036 115.875 713.167 116.006C713.307 116.127 713.54 116.188 713.867 116.188H714.847V117.518H713.587C712.868 117.518 712.317 117.35 711.935 117.014C711.552 116.678 711.361 116.132 711.361 115.376V111.106H710.451V109.804H711.361V107.886H712.971V109.804H714.847V111.106H712.971Z" fill="#4E944F"/>
</svg>
