<svg width="209" height="196" viewBox="0 0 209 196" fill="none" xmlns="http://www.w3.org/2000/svg">
<g filter="url(#filter0_d_276_42)">
<path d="M20 8.69374C20 13.112 16.4183 16.6937 12 16.6937C7.58172 16.6937 4 13.112 4 8.69374C4 4.27546 7.58172 0.693737 12 0.693737C16.4183 0.693737 20 4.27546 20 8.69374ZM193.673 187.6L187.246 171.516L204.389 173.992L193.673 187.6ZM192.828 182.958C192.943 182.138 193.701 181.565 194.521 181.68C195.342 181.795 195.914 182.552 195.799 183.373L192.828 182.958ZM196.945 174.53C196.847 175.353 196.101 175.94 195.278 175.842C194.455 175.744 193.868 174.998 193.966 174.175L196.945 174.53ZM194.919 165.383C194.999 164.558 195.732 163.954 196.556 164.035C197.381 164.115 197.985 164.848 197.905 165.672L194.919 165.383ZM198.663 156.751C198.603 157.577 197.884 158.198 197.058 158.138C196.232 158.078 195.611 157.36 195.671 156.534L198.663 156.751ZM196.195 147.681C196.232 146.854 196.934 146.213 197.761 146.251C198.589 146.288 199.229 146.99 199.192 147.817L196.195 147.681ZM199.467 138.875C199.454 139.703 198.772 140.364 197.943 140.352C197.115 140.339 196.454 139.657 196.467 138.828L199.467 138.875ZM196.459 129.982C196.444 129.153 197.104 128.47 197.932 128.455C198.76 128.44 199.444 129.1 199.459 129.928L196.459 129.982ZM199.135 120.984C199.181 121.811 198.547 122.518 197.72 122.564C196.893 122.61 196.185 121.976 196.14 121.149L199.135 120.984ZM195.472 112.344C195.392 111.519 195.996 110.786 196.82 110.705C197.645 110.625 198.378 111.229 198.458 112.053L195.472 112.344ZM197.385 103.153C197.504 103.973 196.936 104.734 196.116 104.853C195.296 104.972 194.535 104.404 194.416 103.584L197.385 103.153ZM192.925 94.8948C192.763 94.0823 193.291 93.2924 194.103 93.1303C194.915 92.9683 195.705 93.4955 195.867 94.3079L192.925 94.8948ZM193.854 85.5509C194.064 86.3523 193.584 87.1722 192.783 87.3822C191.982 87.5923 191.162 87.1129 190.952 86.3116L193.854 85.5509ZM188.444 77.8799C188.181 77.0943 188.605 76.2443 189.39 75.9813C190.176 75.7183 191.026 76.142 191.289 76.9276L188.444 77.8799ZM188.12 68.4966C188.441 69.2605 188.081 70.1396 187.317 70.4601C186.554 70.7805 185.674 70.4211 185.354 69.6571L188.12 68.4966ZM181.638 61.7124C181.257 60.9771 181.543 60.0716 182.279 59.6899C183.014 59.3081 183.919 59.5947 184.301 60.3299L181.638 61.7124ZM179.797 52.5111C180.242 53.2097 180.037 54.137 179.338 54.5822C178.639 55.0274 177.712 54.822 177.267 54.1234L179.797 52.5111ZM172.227 46.972C171.718 46.3182 171.835 45.3758 172.489 44.8671C173.143 44.3583 174.086 44.476 174.594 45.1298L172.227 46.972ZM168.707 38.2739C169.276 38.8754 169.251 39.8248 168.649 40.3945C168.047 40.9641 167.098 40.9383 166.528 40.3368L168.707 38.2739ZM160.209 34.2845C159.584 33.7413 159.517 32.7939 160.06 32.1684C160.604 31.543 161.551 31.4764 162.176 32.0196L160.209 34.2845ZM155.073 26.4219C155.747 26.9034 155.903 27.8402 155.422 28.5143C154.94 29.1885 154.003 29.3447 153.329 28.8633L155.073 26.4219ZM145.981 24.1054C145.267 23.6865 145.027 22.7675 145.446 22.0528C145.864 21.3381 146.783 21.0982 147.498 21.5171L145.981 24.1054ZM139.532 17.2919C140.279 17.6496 140.595 18.5453 140.238 19.2925C139.88 20.0397 138.984 20.3555 138.237 19.9979L139.532 17.2919ZM130.174 16.5163C129.401 16.2167 129.018 15.3477 129.318 14.5753C129.617 13.803 130.486 13.4197 131.259 13.7193L130.174 16.5163ZM122.748 10.7573C123.539 11.003 123.982 11.8435 123.736 12.6347C123.49 13.4258 122.65 13.868 121.859 13.6224L122.748 10.7573ZM113.385 11.2801C112.581 11.0836 112.088 10.2719 112.284 9.4671C112.481 8.66232 113.292 8.16922 114.097 8.36573L113.385 11.2801ZM105.345 6.48621C106.159 6.6383 106.696 7.42174 106.544 8.23609C106.392 9.05044 105.609 9.58731 104.794 9.43523L105.345 6.48621ZM96.1063 8.03598C95.2855 7.92393 94.7109 7.16769 94.823 6.34687C94.935 5.52606 95.6913 4.9515 96.5121 5.06356L96.1063 8.03598ZM87.6115 4.05005C88.4365 4.12608 89.0436 4.85645 88.9676 5.68138C88.8915 6.50631 88.1612 7.11342 87.3362 7.03739L87.6115 4.05005ZM78.4886 6.40035C77.6613 6.35681 77.0259 5.65087 77.0695 4.82359C77.113 3.9963 77.819 3.36096 78.6463 3.4045L78.4886 6.40035ZM69.6914 3.0938C70.5197 3.10822 71.1795 3.79138 71.1651 4.61968C71.1507 5.44798 70.4675 6.10776 69.6392 6.09335L69.6914 3.0938ZM60.8423 6.08101C60.0139 6.09266 59.333 5.43059 59.3213 4.60225C59.3097 3.7739 59.9717 3.09296 60.8001 3.08131L60.8423 6.08101ZM51.8457 3.33775C52.6734 3.30236 53.3731 3.94463 53.4085 4.77231C53.4438 5.59998 52.8016 6.29962 51.9739 6.33501L51.8457 3.33775ZM43.0917 6.8327C42.2653 6.88965 41.5491 6.26584 41.4922 5.43937C41.4352 4.6129 42.059 3.89675 42.8855 3.8398L43.0917 6.8327ZM34.0474 4.5547C34.8723 4.47836 35.6029 5.0852 35.6793 5.9101C35.7556 6.73501 35.1488 7.4656 34.3239 7.54193L34.0474 4.5547ZM25.4523 8.46172C24.6293 8.55598 23.8857 7.96518 23.7914 7.14213C23.6972 6.31908 24.288 5.57546 25.111 5.4812L25.4523 8.46172ZM16.2922 6.5807C17.1132 6.47021 17.8684 7.04621 17.9789 7.86724C18.0894 8.68826 17.5134 9.44341 16.6923 9.5539L16.2922 6.5807ZM193.966 174.175C194.319 171.218 194.637 168.287 194.919 165.383L197.905 165.672C197.621 168.599 197.3 171.552 196.945 174.53L193.966 174.175ZM195.671 156.534C195.887 153.551 196.062 150.6 196.195 147.681L199.192 147.817C199.058 150.764 198.881 153.742 198.663 156.751L195.671 156.534ZM196.467 138.828C196.513 135.842 196.511 132.892 196.459 129.982L199.459 129.928C199.511 132.873 199.513 135.856 199.467 138.875L196.467 138.828ZM196.14 121.149C195.975 118.169 195.753 115.233 195.472 112.344L198.458 112.053C198.744 114.986 198.969 117.963 199.135 120.984L196.14 121.149ZM194.416 103.584C193.988 100.633 193.492 97.7358 192.925 94.8948L195.867 94.3079C196.445 97.2032 196.95 100.152 197.385 103.153L194.416 103.584ZM190.952 86.3116C190.198 83.4355 189.363 80.6242 188.444 77.8799L191.289 76.9276C192.23 79.7379 193.084 82.6132 193.854 85.5509L190.952 86.3116ZM185.354 69.6571C184.211 66.9324 182.973 64.2834 181.638 61.7124L184.301 60.3299C185.675 62.976 186.947 65.6992 188.12 68.4966L185.354 69.6571ZM177.267 54.1234C175.694 51.6547 174.015 49.27 172.227 46.972L174.594 45.1298C176.441 47.5034 178.174 49.9649 179.797 52.5111L177.267 54.1234ZM166.528 40.3368C164.534 38.2313 162.429 36.2129 160.209 34.2845L162.176 32.0196C164.47 34.012 166.646 36.0978 168.707 38.2739L166.528 40.3368ZM153.329 28.8633C150.99 27.1924 148.541 25.6056 145.981 24.1054L147.498 21.5171C150.135 23.0621 152.659 24.6978 155.073 26.4219L153.329 28.8633ZM138.237 19.9979C135.65 18.7596 132.963 17.5983 130.174 16.5163L131.259 13.7193C134.117 14.8282 136.874 16.0197 139.532 17.2919L138.237 19.9979ZM121.859 13.6224C119.123 12.7729 116.299 11.9916 113.385 11.2801L114.097 8.36573C117.069 9.09131 119.952 9.88897 122.748 10.7573L121.859 13.6224ZM104.794 9.43523C101.975 8.90877 99.0798 8.44192 96.1063 8.03598L96.5121 5.06356C99.5324 5.47588 102.476 5.95045 105.345 6.48621L104.794 9.43523ZM87.3362 7.03739C84.4548 6.77184 81.5059 6.55916 78.4886 6.40035L78.6463 3.4045C81.7015 3.5653 84.6896 3.78077 87.6115 4.05005L87.3362 7.03739ZM69.6392 6.09335C66.765 6.04332 63.833 6.03896 60.8423 6.08101L60.8001 3.08131C63.8213 3.03883 66.7848 3.04321 69.6914 3.0938L69.6392 6.09335ZM51.9739 6.33501C49.0656 6.45937 46.1051 6.62506 43.0917 6.8327L42.8855 3.8398C45.9241 3.63042 48.9106 3.46325 51.8457 3.33775L51.9739 6.33501ZM34.3239 7.54193C31.4135 7.81124 28.4565 8.11767 25.4523 8.46172L25.111 5.4812C28.1362 5.13475 31.1148 4.82606 34.0474 4.5547L34.3239 7.54193ZM16.6923 9.5539C15.2106 9.75331 13.7179 9.96145 12.2142 10.1784L11.7858 7.20911C13.2988 6.99085 14.8009 6.7814 16.2922 6.5807L16.6923 9.5539Z" fill="#5EA36D"/>
</g>
<defs>
<filter id="filter0_d_276_42" x="0" y="0.693726" width="208.389" height="194.906" filterUnits="userSpaceOnUse" color-interpolation-filters="sRGB">
<feFlood flood-opacity="0" result="BackgroundImageFix"/>
<feColorMatrix in="SourceAlpha" type="matrix" values="0 0 0 0 0 0 0 0 0 0 0 0 0 0 0 0 0 0 127 0" result="hardAlpha"/>
<feOffset dy="4"/>
<feGaussianBlur stdDeviation="2"/>
<feComposite in2="hardAlpha" operator="out"/>
<feColorMatrix type="matrix" values="0 0 0 0 0 0 0 0 0 0 0 0 0 0 0 0 0 0 0.25 0"/>
<feBlend mode="normal" in2="BackgroundImageFix" result="effect1_dropShadow_276_42"/>
<feBlend mode="normal" in="SourceGraphic" in2="effect1_dropShadow_276_42" result="shape"/>
</filter>
</defs>
</svg>
