<svg width="226" height="196" viewBox="0 0 226 196" fill="none" xmlns="http://www.w3.org/2000/svg">
<g filter="url(#filter0_d_255_7)">
<path d="M205.204 8.14451C205.204 12.5628 208.785 16.1445 213.204 16.1445C217.622 16.1445 221.204 12.5628 221.204 8.14451C221.204 3.72623 217.622 0.144505 213.204 0.144505C208.785 0.144505 205.204 3.72623 205.204 8.14451ZM15.7036 187.186L21.9258 171.022L4.816 173.716L15.7036 187.186ZM15.4406 175.159C15.0872 172.507 14.7638 169.876 14.4715 167.267L11.4902 167.601C11.7849 170.232 12.1108 172.883 12.4669 175.555L15.4406 175.159ZM13.6761 159.362C13.4398 156.705 13.2379 154.072 13.0715 151.463L10.0775 151.654C10.2456 154.288 10.4494 156.947 10.6879 159.628L13.6761 159.362ZM12.6746 143.571C12.5774 140.897 12.5203 138.251 12.5045 135.634L9.50458 135.653C9.52057 138.3 9.57837 140.977 9.67663 143.68L12.6746 143.571ZM12.5869 127.706C12.6599 125.038 12.7794 122.403 12.9467 119.802L9.95284 119.609C9.78309 122.248 9.66198 124.92 9.58798 127.624L12.5869 127.706ZM13.6116 111.932C13.8906 109.284 14.2236 106.676 14.6122 104.108L11.646 103.659C11.2504 106.274 10.9117 108.927 10.6281 111.617L13.6116 111.932ZM15.982 96.3492C16.5114 93.7396 17.1038 91.1761 17.7612 88.6602L14.8586 87.9019C14.1867 90.4734 13.5819 93.0909 13.0419 95.7527L15.982 96.3492ZM19.9808 81.0992C20.8054 78.5814 21.7024 76.1168 22.6738 73.7069L19.8913 72.5854C18.8942 75.0592 17.9745 77.5865 17.1298 80.1655L19.9808 81.0992ZM25.8685 66.5294C27.0258 64.1659 28.2641 61.8618 29.5857 59.6188L27.001 58.0958C25.6393 60.4069 24.3645 62.7791 23.1742 65.2102L25.8685 66.5294ZM33.8342 53.0302C35.3374 50.8956 36.928 48.8243 38.6082 46.8181L36.3083 44.8919C34.5737 46.9629 32.9323 49.1006 31.3814 51.3029L33.8342 53.0302ZM43.8863 41.031C45.7117 39.1918 47.6262 37.4164 49.6323 35.7067L47.6863 33.4235C45.617 35.1871 43.6413 37.0191 41.757 38.9177L43.8863 41.031ZM55.7988 30.8689C57.89 29.3594 60.0674 27.9112 62.3332 26.5258L60.7682 23.9663C58.4383 25.3909 56.1971 26.8814 54.043 28.4364L55.7988 30.8689ZM69.1826 22.6713C71.4742 21.4861 73.846 20.3577 76.2997 19.2875L75.1004 16.5377C72.5876 17.6336 70.1562 18.7903 67.8044 20.0065L69.1826 22.6713ZM83.6282 16.3554C86.0367 15.4739 88.5164 14.643 91.0687 13.8639L90.1928 10.9946C87.5899 11.7892 85.0584 12.6374 82.5971 13.5382L83.6282 16.3554ZM98.6522 11.7563C101.16 11.1247 103.732 10.539 106.369 10L105.768 7.06081C103.088 7.60854 100.472 8.20423 97.9196 8.84711L98.6522 11.7563ZM114.187 8.57094C116.721 8.16026 119.31 7.78962 121.956 7.45971L121.585 4.48276C118.904 4.81706 116.278 5.19286 113.707 5.60958L114.187 8.57094ZM129.835 6.61368C132.431 6.37822 135.078 6.17949 137.776 6.01807L137.597 3.02342C134.869 3.18662 132.192 3.38763 129.564 3.62595L129.835 6.61368ZM145.628 5.65885C148.244 5.57488 150.904 5.524 153.611 5.50669L153.592 2.50675C150.86 2.52422 148.174 2.57557 145.532 2.66039L145.628 5.65885ZM161.495 5.54936C164.103 5.59342 166.751 5.66707 169.44 5.7707L169.556 2.77292C166.845 2.66849 164.175 2.59422 161.545 2.54978L161.495 5.54936ZM177.366 6.15622C179.966 6.30829 182.602 6.48708 185.275 6.69291L185.505 3.70176C182.814 3.49456 180.16 3.31451 177.541 3.16134L177.366 6.15622ZM193.203 7.37271C195.797 7.61735 198.425 7.88639 201.086 8.1801L201.415 5.1982C198.739 4.90279 196.095 4.63212 193.484 4.38596L193.203 7.37271ZM208.984 9.11205C210.317 9.27923 211.657 9.45235 213.006 9.63145L213.401 6.65756C212.045 6.47752 210.698 6.30347 209.358 6.13539L208.984 9.11205Z" fill="#5EA36D"/>
</g>
<defs>
<filter id="filter0_d_255_7" x="0.81601" y="0.144531" width="224.388" height="195.042" filterUnits="userSpaceOnUse" color-interpolation-filters="sRGB">
<feFlood flood-opacity="0" result="BackgroundImageFix"/>
<feColorMatrix in="SourceAlpha" type="matrix" values="0 0 0 0 0 0 0 0 0 0 0 0 0 0 0 0 0 0 127 0" result="hardAlpha"/>
<feOffset dy="4"/>
<feGaussianBlur stdDeviation="2"/>
<feComposite in2="hardAlpha" operator="out"/>
<feColorMatrix type="matrix" values="0 0 0 0 0 0 0 0 0 0 0 0 0 0 0 0 0 0 0.25 0"/>
<feBlend mode="normal" in2="BackgroundImageFix" result="effect1_dropShadow_255_7"/>
<feBlend mode="normal" in="SourceGraphic" in2="effect1_dropShadow_255_7" result="shape"/>
</filter>
</defs>
</svg>
